<?xml version="1.0" encoding="UTF-8"?>
<svg version="1.1" xmlns="http://www.w3.org/2000/svg" width="48" height="48">
<path d="M0 0 C1.30904297 -0.00430527 1.30904297 -0.00430527 2.64453125 -0.00869751 C4.48698578 -0.01073617 6.32946205 -0.00522014 8.171875 0.00732422 C10.99007621 0.02338096 13.80684333 0.00746912 16.625 -0.01171875 C18.41666983 -0.00973628 20.20833876 -0.00589253 22 0 C22.84175781 -0.00607269 23.68351562 -0.01214539 24.55078125 -0.0184021 C27.83626903 0.02104493 30.44582085 0.18671539 33.52929688 1.36474609 C35.94364153 4.70330701 35.56900549 8.37217456 35.53125 12.3359375 C35.5350769 13.21241943 35.53890381 14.08890137 35.54284668 14.99194336 C35.54556799 16.84457549 35.53819146 18.69724589 35.52148438 20.54980469 C35.50007691 23.38823979 35.52127761 26.22414378 35.546875 29.0625 C35.54423176 30.86198476 35.53910686 32.66146795 35.53125 34.4609375 C35.53934692 35.31099365 35.54744385 36.1610498 35.55578613 37.03686523 C35.46461371 42.75596868 35.46461371 42.75596868 33.52929688 45.43212891 C29.69377324 46.89747664 26.073751 46.82626426 22 46.796875 C20.69095703 46.80118027 20.69095703 46.80118027 19.35546875 46.80557251 C17.51301422 46.80761117 15.67053795 46.80209514 13.828125 46.78955078 C11.00992379 46.77349404 8.19315667 46.78940588 5.375 46.80859375 C3.58333017 46.80661128 1.79166124 46.80276753 0 46.796875 C-1.26263672 46.80598404 -1.26263672 46.80598404 -2.55078125 46.8152771 C-5.83626903 46.77583007 -8.44582085 46.61015961 -11.52929688 45.43212891 C-13.94364153 42.09356799 -13.56900549 38.42470044 -13.53125 34.4609375 C-13.5350769 33.58445557 -13.53890381 32.70797363 -13.54284668 31.80493164 C-13.54556799 29.95229951 -13.53819146 28.09962911 -13.52148438 26.24707031 C-13.50007691 23.40863521 -13.52127761 20.57273122 -13.546875 17.734375 C-13.54423176 15.93489024 -13.53910686 14.13540705 -13.53125 12.3359375 C-13.53934692 11.48588135 -13.54744385 10.6358252 -13.55578613 9.76000977 C-13.46461371 4.04090632 -13.46461371 4.04090632 -11.52929688 1.36474609 C-7.69377324 -0.10060164 -4.073751 -0.02938926 0 0 Z " fill="#5E20EB" transform="translate(13,0.6015625)"/>
<path d="M0 0 C5.09285307 2.38799939 10.13607501 4.99269166 13 10 C13.3984375 12.69140625 13.3984375 12.69140625 13.375 15.5625 C13.38273437 16.51253906 13.39046875 17.46257813 13.3984375 18.44140625 C12.93301845 21.43012662 12.39400643 22.21803594 10 24 C5.55177704 26.75937482 1.07995633 26.51999553 -4 26 C-7.5625 24.75 -7.5625 24.75 -10 23 C-10.875 20.8125 -10.875 20.8125 -11 19 C-10.319375 19.33 -9.63875 19.66 -8.9375 20 C-5.49159762 21.17307315 -2.61602578 21.14180493 1 21 C-0.2375 20.5875 -1.475 20.175 -2.75 19.75 C-6.28560741 18.40609239 -8.81829511 17.22512897 -11 14 C-10.75 11.25 -10.75 11.25 -10 9 C-9.34 9.33 -8.68 9.66 -8 10 C-8 11.32 -8 12.64 -8 14 C-3.66579301 16.03165952 0.28596212 16.52060632 5 17 C3.989375 16.62875 2.97875 16.2575 1.9375 15.875 C-3.18867569 13.66166141 -7.92091183 10.57782175 -10.125 5.3125 C-10 3 -10 3 -9 1.1875 C-5.72684459 -0.75593602 -3.77671661 -0.53953094 0 0 Z " fill="#ECE2E6" transform="translate(23,11)"/>
<path d="M0 0 C0.66 0.99 1.32 1.98 2 3 C4.28292297 3.72668059 4.28292297 3.72668059 6.875 4.0625 C10.30062905 4.59935231 12.96543223 5.29923062 16 7 C16 7.66 16 8.32 16 9 C13.36 8.67 10.72 8.34 8 8 C9.32 8.66 10.64 9.32 12 10 C12 10.99 12 11.98 12 13 C7.8275894 12.48118887 5.74583179 11.28848726 2.6875 8.4375 C1.99011719 7.79683594 1.29273438 7.15617187 0.57421875 6.49609375 C-0.20501953 5.75552734 -0.20501953 5.75552734 -1 5 C-0.67 3.35 -0.34 1.7 0 0 Z " fill="#EFE6E6" transform="translate(15,14)"/>
<path d="M0 0 C5.85243483 0.36577718 10.57752758 1.99820178 15 6 C15.7890625 8.10546875 15.7890625 8.10546875 16 10 C15.67 10.33 15.34 10.66 15 11 C8.65742251 10.53017945 8.65742251 10.53017945 6.0625 8.4375 C5.5365625 7.7259375 5.5365625 7.7259375 5 7 C8.62528568 6.79859524 10.86501708 7.14223235 14 9 C14 8.34 14 7.68 14 7 C9.38 6.01 4.76 5.02 0 4 C0 2.68 0 1.36 0 0 Z " fill="#6B31EB" transform="translate(17,14)"/>
<path d="M0 0 C0.66 0.33 1.32 0.66 2 1 C2 2.32 2 3.64 2 5 C5.7522584 6.65684137 9.26353061 7.50208163 13.3125 8.125 C14.38113281 8.29257812 15.44976563 8.46015625 16.55078125 8.6328125 C17.35902344 8.75398438 18.16726562 8.87515625 19 9 C19 9.66 19 10.32 19 11 C12.24613709 11.32975461 6.95139519 11.4188866 1 8 C-1 5 -1 5 -0.625 2.3125 C-0.41875 1.549375 -0.2125 0.78625 0 0 Z " fill="#F5EFE6" transform="translate(13,20)"/>
<path d="M0 0 C5.14211837 0.57134649 8.62536342 2.69963551 12.9375 5.4375 C11.12109375 6.51953125 11.12109375 6.51953125 8.9375 7.4375 C6 6.125 6 6.125 2.9375 4.4375 C0.20177415 3.73842586 0.20177415 3.73842586 -2.0625 3.4375 C-2.3925 4.4275 -2.7225 5.4175 -3.0625 6.4375 C-3.3925 5.7775 -3.7225 5.1175 -4.0625 4.4375 C-4.7225 5.0975 -5.3825 5.7575 -6.0625 6.4375 C-5.23022385 2.27611926 -4.47757166 0.63965309 0 0 Z " fill="#E9DFE6" transform="translate(19.0625,10.5625)"/>
<path d="M0 0 C2.48705465 1.14787138 4.56760582 2.4036308 6.8125 4 C10.29575939 6.18557452 13.03692558 7.04886214 17 8 C17 8.33 17 8.66 17 9 C10.8531925 9.43905768 5.998262 8.90138655 1 5 C0 2.25 0 2.25 0 0 Z " fill="#8352EA" transform="translate(14,20)"/>
<path d="M0 0 C1.32 0.99 2.64 1.98 4 3 C3.67 4.32 3.34 5.64 3 7 C-3.52307692 6.38461538 -3.52307692 6.38461538 -5.9375 4.4375 C-6.288125 3.963125 -6.63875 3.48875 -7 3 C-3.37471432 2.79859524 -1.13498292 3.14223235 2 5 C2 4.34 2 3.68 2 3 C0.68 2.34 -0.64 1.68 -2 1 C-1.34 0.67 -0.68 0.34 0 0 Z " fill="#8C5FEA" transform="translate(29,18)"/>
<path d="M0 0 C2.475 0.99 2.475 0.99 5 2 C5 2.99 5 3.98 5 5 C8.96 5.33 12.92 5.66 17 6 C17 6.33 17 6.66 17 7 C5.99638657 7.58714933 5.99638657 7.58714933 1 4 C0.125 1.8125 0.125 1.8125 0 0 Z " fill="#CDB8E7" transform="translate(12,30)"/>
<path d="M0 0 C2.88437779 1.29299694 4.87219421 2.65941363 7 5 C6.67 5.66 6.34 6.32 6 7 C3.5625 6.3125 3.5625 6.3125 1 5 C0.1875 2.375 0.1875 2.375 0 0 Z " fill="#7741EB" transform="translate(14,20)"/>
<path d="M0 0 C3.63 0.66 7.26 1.32 11 2 C11 2.33 11 2.66 11 3 C6.71 3 2.42 3 -2 3 C-1.34 2.67 -0.68 2.34 0 2 C0 1.34 0 0.68 0 0 Z " fill="#7641EA" transform="translate(19,30)"/>
<path d="M0 0 C0.66 0.33 1.32 0.66 2 1 C2 2.32 2 3.64 2 5 C2.66 5.33 3.32 5.66 4 6 C3.01 6.66 2.02 7.32 1 8 C-1 5 -1 5 -0.625 2.3125 C-0.41875 1.549375 -0.2125 0.78625 0 0 Z " fill="#ECE2E6" transform="translate(13,20)"/>
<path d="M0 0 C1.670625 0.061875 1.670625 0.061875 3.375 0.125 C3.375 0.455 3.375 0.785 3.375 1.125 C2.59125 1.2075 1.8075 1.29 1 1.375 C-1.77249104 1.85306339 -1.77249104 1.85306339 -2.9375 4.1875 C-3.2778125 5.1465625 -3.2778125 5.1465625 -3.625 6.125 C-3.955 5.465 -4.285 4.805 -4.625 4.125 C-5.285 4.785 -5.945 5.445 -6.625 6.125 C-5.71577947 1.57889733 -4.95184304 0.17075321 0 0 Z " fill="#C4ACE8" transform="translate(19.625,10.875)"/>
</svg>
