<?xml version="1.0" encoding="UTF-8"?>
<svg version="1.1" xmlns="http://www.w3.org/2000/svg" width="48" height="48">
<path d="M0 0 C0.7425 -0.01611328 1.485 -0.03222656 2.25 -0.04882812 C8.11108162 -0.05400576 12.22168321 1.1201614 16.671875 5.1796875 C17.23390625 5.84226562 17.7959375 6.50484375 18.375 7.1875 C18.94734375 7.84492187 19.5196875 8.50234375 20.109375 9.1796875 C24.70188331 15.64234095 24.29575217 22.6710196 23.625 30.3125 C22.01444761 36.98616619 18.46887569 41.73039938 12.625 45.3125 C5.22865948 48.7684892 -1.12106229 49.19725175 -8.9375 46.75 C-15.71626422 44.09986584 -19.3103404 40.14302241 -22.25 33.5625 C-24.77153544 25.74121044 -24.0396944 17.98542804 -20.71484375 10.54296875 C-18.57652395 6.98325853 -15.83699315 4.55975871 -12.375 2.3125 C-11.81554688 1.93738281 -11.25609375 1.56226562 -10.6796875 1.17578125 C-7.17825796 -0.13577117 -3.68791067 -0.01584154 0 0 Z M-4.375 15.3125 C-5.26445312 16.17746094 -6.15390625 17.04242188 -7.0703125 17.93359375 C-13.00416533 23.12677951 -13.00416533 23.12677951 -15.6875 30.125 C-15.29145896 34.16461856 -14.38658942 35.60979155 -11.375 38.3125 C-7.7721438 39.36060362 -5.55992706 39.86519403 -2.10546875 38.25390625 C1.61031714 35.61192401 4.68899595 32.49879874 7.875 29.25 C8.51179688 28.61255859 9.14859375 27.97511719 9.8046875 27.31835938 C14.335322 22.93817351 14.335322 22.93817351 16 17 C15.91945692 13.22293614 15.91945692 13.22293614 13.5625 10.375 C10.74517397 8.11932643 10.74517397 8.11932643 7.3125 7.5625 C1.966013 8.64992109 -0.60826408 11.51225219 -4.375 15.3125 Z " fill="#5433FF" transform="translate(23.375,-0.3125)"/>
</svg>
