<svg xmlns="http://www.w3.org/2000/svg" width="156" height="24" viewBox="0 0 156 24" fill="none"><path d="M23.007 13.4042C24.4794 10.4557 21.1196 5.62693 15.42 2.54349C9.64999 -0.579522 3.66431 -0.730786 2.05125 2.20605C1.27286 3.62327 1.65502 5.50127 2.90937 7.4165C2.90937 7.41882 2.91405 7.42115 2.91405 7.42348C3.35718 8.103 3.91284 8.78485 4.56463 9.45506C4.5787 9.47135 4.59511 9.48531 4.60917 9.5016C5.91744 10.8374 7.60787 12.1103 9.57965 13.1785C13.338 15.2124 17.1901 15.985 19.8629 15.466C19.8793 15.4637 19.8934 15.4591 19.9098 15.4567C19.544 15.843 18.9321 16.1363 18.135 16.3247C17.9568 16.369 17.7692 16.4062 17.5723 16.4388C15.8326 16.725 13.4271 16.6017 10.8574 16.0036C9.01695 15.5754 7.35935 14.9657 6.0417 14.2792C4.84363 13.6532 3.92456 12.9644 3.40407 12.2849C3.01253 11.7729 2.84606 11.2679 2.95626 10.8048C3.03128 10.4813 3.23526 10.1997 3.54943 9.96238C2.8742 9.27587 2.35605 8.64755 1.88948 7.95174C0.942276 8.55912 0.304555 9.34569 0.0841657 10.2812C-0.162013 11.3261 0.140435 12.4338 0.878973 13.5019C1.17673 13.9348 1.54483 14.3607 1.97623 14.7726C2.19193 14.9797 2.42404 15.1845 2.67022 15.3823C3.10631 15.736 3.58929 16.0781 4.11213 16.4015C5.79787 17.4464 7.91266 18.3191 10.2783 18.8706C13.8374 19.6968 17.2136 19.6223 19.6425 18.8311C19.734 18.8008 19.8231 18.7706 19.9121 18.738C18.911 20.1389 15.4106 21.1326 11.2654 21.0721C7.15537 21.0093 4.42395 19.7759 2.71946 18.5192C2.27633 18.1911 1.85197 17.8444 1.30568 17.9421C0.252974 18.1353 -0.215938 19.3826 0.46633 20.2017C2.2693 22.3683 6.44028 23.9252 11.3217 23.9973C17.8935 24.095 23.2625 21.4631 23.3118 18.1166C23.3188 17.5651 23.1828 17.0275 22.9179 16.5156C23.0703 16.248 23.1828 15.964 23.2555 15.6662C23.429 14.9285 23.3305 14.1628 22.9976 13.3995L23.007 13.4042ZM19.1713 12.6712C18.8688 12.7503 18.5171 12.7922 18.1279 12.7968C16.3039 12.8201 13.6264 12.0382 10.9043 10.5651C10.2244 10.1974 9.582 9.80878 8.98648 9.40619C8.84111 9.30845 8.69809 9.21071 8.55976 9.11065C9.54448 9.12228 10.5972 9.20606 11.6851 9.36663C13.0824 9.57374 14.3204 9.88325 15.4106 10.2602C16.5665 10.6628 17.4386 11.0678 18.2639 11.5867C18.4304 11.6914 18.6414 11.8031 18.8571 11.8055C19.1244 11.8055 19.2393 11.6775 19.2955 11.5262C19.3799 11.3005 19.3377 10.8676 18.9954 10.3254C18.2874 9.19908 16.3554 7.72833 12.1868 6.79282C9.43429 6.17614 6.95374 6.33903 5.75567 6.62527C4.69827 5.38491 4.25983 4.23996 4.6842 3.46968C5.55638 1.88258 9.75549 2.48531 14.0648 4.81709C17.9193 6.9022 20.5546 9.6645 20.4444 11.3587C20.4326 11.5402 20.3881 11.7101 20.3107 11.866C20.3037 11.8823 20.2943 11.8962 20.2873 11.9125C20.0833 12.2825 19.6988 12.5339 19.1736 12.6712H19.1713Z" fill="#5E1FEC"></path><path d="M47.9484 6.33201C46.6167 5.51053 45.0904 5.09863 43.3695 5.09863C41.6486 5.09863 40.0988 5.50355 38.7906 6.31572C37.4823 7.12789 36.4788 8.23793 35.7801 9.64352C35.0815 11.0514 34.7321 12.6199 34.7321 14.3513C34.7321 16.0827 35.0815 17.6582 35.7801 19.0754C36.4788 20.4926 37.4753 21.6143 38.7741 22.4357C40.0707 23.2572 41.604 23.6691 43.3718 23.6691C45.1396 23.6691 46.6425 23.2572 47.9508 22.4357C49.259 21.6143 50.2672 20.4973 50.9753 19.0917C51.6833 17.6861 52.0373 16.106 52.0373 14.3513C52.0373 12.5966 51.688 11.0561 50.9917 9.65981C50.293 8.26353 49.2801 7.15349 47.9508 6.33201H47.9484ZM47.2943 17.6465C46.945 18.6099 46.4315 19.3616 45.7563 19.9038C45.0787 20.4461 44.2839 20.716 43.3671 20.716C42.4504 20.716 41.6603 20.4461 40.9944 19.9038C40.3286 19.3639 39.8269 18.6169 39.4892 17.6628C39.1516 16.711 38.9828 15.6056 38.9828 14.3513C38.9828 13.097 39.1516 12.0568 39.4892 11.105C39.8269 10.1532 40.3286 9.40615 40.9944 8.86393C41.6603 8.32403 42.4504 8.05176 43.3671 8.05176C44.2839 8.05176 45.074 8.32171 45.7375 8.86393C46.4034 9.40615 46.9145 10.1508 47.2755 11.105C47.6343 12.0568 47.8148 13.1389 47.8148 14.3513C47.8148 15.5637 47.6389 16.6854 47.2919 17.6465H47.2943Z" fill="#5E1FEC"></path><path d="M70.0295 11.2027C70.0295 10.0345 69.8232 8.98959 69.4082 8.07038C68.9932 7.15116 68.3672 6.4251 67.5279 5.89451C66.6885 5.36393 65.6358 5.09863 64.3721 5.09863C63.4554 5.09863 62.5785 5.31506 61.7392 5.7479C60.8998 6.18075 60.1519 6.77649 59.4978 7.53514C58.8436 8.29378 58.3208 9.14784 57.9269 10.0996V5.55475H53.9693V23.2177H57.9269V15.231C57.9269 13.9115 58.1707 12.713 58.6631 11.6425C59.1531 10.572 59.7979 9.73893 60.5927 9.14318C61.3898 8.54744 62.2221 8.24957 63.0967 8.24957C64.079 8.24957 64.8129 8.54744 65.3052 9.14318C65.7952 9.73893 66.0414 10.6325 66.0414 11.8217V23.2177H70.2288C70.0975 21.9401 70.0319 20.5345 70.0319 18.9963V11.2027H70.0295Z" fill="#5E1FEC"></path><path d="M86.3359 6.25067C85.1918 5.48272 83.8554 5.09641 82.3291 5.09641C81.1521 5.09641 80.0713 5.4385 79.0913 6.12035C78.1089 6.8022 77.3258 7.71676 76.735 8.86404V0H72.7773V23.2154H76.735V20.0017C77.3234 21.128 78.1089 22.0216 79.0913 22.6802C80.0736 23.3411 81.1404 23.6716 82.2963 23.6716C83.8015 23.6716 85.1355 23.2829 86.3031 22.5033C87.4707 21.7238 88.3757 20.63 89.0181 19.2244C89.6605 17.8188 89.9817 16.2038 89.9817 14.3863C89.9817 12.5688 89.6605 10.9235 89.0181 9.51563C88.3757 8.10772 87.4801 7.02095 86.3359 6.253V6.25067ZM85.1918 17.5489C84.8096 18.4681 84.2798 19.1825 83.6045 19.6922C82.927 20.2018 82.1532 20.4555 81.2811 20.4555C80.4089 20.4555 79.6938 20.2228 79.0068 19.7573C78.3199 19.2919 77.7689 18.6589 77.3563 17.8584C76.9413 17.0579 76.735 16.1689 76.735 15.1962V13.6696C76.735 12.7178 76.9366 11.8288 77.3399 11.0073C77.7431 10.1858 78.2894 9.5296 78.9764 9.04323C79.6633 8.55686 80.4323 8.31251 81.2834 8.31251C82.1345 8.31251 82.9293 8.56151 83.6069 9.05952C84.2821 9.55752 84.812 10.2673 85.1941 11.1865C85.5763 12.1057 85.7662 13.1739 85.7662 14.384C85.7662 15.5941 85.574 16.6297 85.1941 17.5512L85.1918 17.5489Z" fill="#5E1FEC"></path><path d="M104.246 6.33201C102.914 5.51053 101.388 5.09863 99.6672 5.09863C97.9463 5.09863 96.3966 5.50355 95.0883 6.31572C93.78 7.12789 92.7765 8.23793 92.0779 9.64352C91.3792 11.0514 91.0298 12.6199 91.0298 14.3513C91.0298 16.0827 91.3792 17.6582 92.0779 19.0754C92.7765 20.4926 93.773 21.6143 95.0719 22.4357C96.3684 23.2572 97.9018 23.6691 99.6696 23.6691C101.437 23.6691 102.94 23.2572 104.249 22.4357C105.557 21.6143 106.565 20.4973 107.273 19.0917C107.981 17.6861 108.335 16.106 108.335 14.3513C108.335 12.5966 107.986 11.0561 107.289 9.65981C106.591 8.26353 105.578 7.15349 104.249 6.33201H104.246ZM103.592 17.6465C103.243 18.6099 102.729 19.3616 102.054 19.9038C101.376 20.4461 100.582 20.716 99.6649 20.716C98.7482 20.716 97.958 20.4461 97.2922 19.9038C96.6263 19.3639 96.1246 18.6169 95.787 17.6628C95.4494 16.711 95.2805 15.6056 95.2805 14.3513C95.2805 13.097 95.4494 12.0568 95.787 11.105C96.1246 10.1532 96.6263 9.40615 97.2922 8.86393C97.958 8.32403 98.7482 8.05176 99.6649 8.05176C100.582 8.05176 101.372 8.32171 102.035 8.86393C102.701 9.40615 103.212 10.1508 103.573 11.105C103.932 12.0568 104.113 13.1389 104.113 14.3513C104.113 15.5637 103.937 16.6854 103.59 17.6465H103.592Z" fill="#5E1FEC"></path><path d="M125.476 20.9419C125.192 20.9419 124.974 20.8651 124.822 20.7138C124.67 20.5625 124.58 20.3019 124.559 19.9342V11.396C124.559 10.0974 124.334 8.98274 123.889 8.05189C123.441 7.12104 122.728 6.39497 121.746 5.87602C120.764 5.35707 119.509 5.09644 117.983 5.09644C116.26 5.09644 114.64 5.48507 113.125 6.26465C111.61 7.04424 110.307 8.19152 109.217 9.70648L112.063 11.8823C112.717 10.628 113.524 9.66924 114.485 9.00834C115.444 8.34744 116.48 8.01698 117.594 8.01698C118.597 8.01698 119.343 8.33115 119.835 8.95947C120.325 9.5878 120.571 10.4535 120.571 11.5565V11.6845C118.295 11.8963 116.332 12.2873 114.715 12.8714C112.949 13.509 111.601 14.3375 110.675 15.3544C109.749 16.3714 109.285 17.5629 109.285 18.9266C109.285 20.2903 109.758 21.5027 110.708 22.3684C111.657 23.2341 112.928 23.6669 114.52 23.6669C116.004 23.6669 117.263 23.2783 118.297 22.4987C119.293 21.747 120.048 20.765 120.571 19.5642V19.8039C120.571 21.0605 120.888 22.017 121.521 22.6779C122.152 23.3388 123.014 23.6693 124.105 23.6693C124.496 23.6693 124.874 23.632 125.232 23.5552C125.591 23.4784 125.936 23.3667 126.262 23.2155L126.752 20.6184C126.489 20.7278 126.266 20.8092 126.081 20.8627C125.896 20.9163 125.694 20.9442 125.476 20.9442V20.9419ZM119.884 17.9562C119.427 18.78 118.832 19.4013 118.1 19.8225C117.369 20.2437 116.578 20.4555 115.73 20.4555C115.01 20.4555 114.447 20.2716 114.044 19.904C113.641 19.5363 113.439 19.0173 113.439 18.3448C113.439 17.5233 113.76 16.8345 114.403 16.2829C115.045 15.7314 115.941 15.3032 117.085 15.0007C118.077 14.7377 119.244 14.5446 120.569 14.4119V15.0984C120.569 16.1806 120.339 17.1323 119.882 17.9562H119.884Z" fill="#5E1FEC"></path><path d="M138.17 5.34078C137.778 5.17789 137.33 5.09644 136.829 5.09644C135.912 5.09644 135.023 5.52463 134.163 6.37868C133.302 7.23274 132.587 8.36373 132.02 9.77164V5.55023H128.029V23.2131H132.184C132.074 22.1729 132.02 20.9186 132.02 19.4455V14.5097C132.02 13.3857 132.2 12.3827 132.559 11.5054C132.918 10.628 133.377 9.96246 133.933 9.50867C134.489 9.05488 135.051 8.82682 135.619 8.82682C136.031 8.82682 136.392 8.88733 136.697 9.00601C137.002 9.1247 137.34 9.35741 137.712 9.70415L139.316 6.13201C138.946 5.76432 138.563 5.49903 138.172 5.33613L138.17 5.34078Z" fill="#5E1FEC"></path><path d="M155.998 23.2154C155.866 21.9379 155.801 20.5323 155.801 18.994V0H151.843V8.7663C151.255 7.63997 150.469 6.74868 149.487 6.08777C148.504 5.42687 147.435 5.09641 146.282 5.09641C144.777 5.09641 143.44 5.48504 142.275 6.26463C141.107 7.04422 140.202 8.13797 139.56 9.54356C138.918 10.9515 138.596 12.5642 138.596 14.3817C138.596 16.1992 138.913 17.8444 139.546 19.2523C140.179 20.6603 141.072 21.747 142.228 22.515C143.384 23.2829 144.725 23.6669 146.251 23.6669C147.428 23.6669 148.509 23.3248 149.489 22.643C150.472 21.9611 151.255 21.0466 151.845 19.8993V23.2108H156L155.998 23.2154ZM151.238 17.7607C150.835 18.5845 150.289 19.2384 149.602 19.7248C148.915 20.2111 148.157 20.4555 147.327 20.4555C146.432 20.4555 145.646 20.2065 144.971 19.7085C144.296 19.2105 143.766 18.5007 143.384 17.5815C143.002 16.6622 142.812 15.5964 142.812 14.384C142.812 13.1716 143.002 12.1383 143.384 11.2191C143.766 10.2999 144.296 9.58545 144.971 9.07581C145.646 8.56616 146.432 8.31251 147.327 8.31251C148.134 8.31251 148.882 8.54522 149.569 9.01065C150.256 9.47607 150.807 10.1091 151.222 10.9096C151.634 11.7101 151.843 12.5991 151.843 13.5718V15.0984C151.843 16.0502 151.641 16.9392 151.238 17.7607Z" fill="#5E1FEC"></path></svg>